# xmcd
#
# Track frame offsets:
# 150
# 18226
# 35571
# 53739
# 69515
# 86161
# 99760
# 115955
# 130597
# 147588
# 161399
# 175320
# 188255
# 202150
#
# Disc length: 2859 seconds
#
#
# Revision: 0
# Processed by: cddbd v1.5.2PL0 Copyright (c) Steve Scherf et al.
# Submitted via: FreeRIP 2.951 
#
DISCID=b80b290e
DTITLE=MARCELO DANTAS 2006 - MARCELO DANTAS
DYEAR=2006
DGENRE=PIAUIENSE
TTITLE0=MARCELO DANTAS - AMO VOCÊ
TTITLE1=MARCELO DANTAS - SAUDADE VEM
TTITLE2=MARCELO DANTAS - LINDA CANÇÃO
TTITLE3=MARCELO DANTAS - PORTA RETRATO
TTITLE4=MARCELO DANTAS - EVA MEU AMOR
TTITLE5=MARCELO DANTAS - ME DÁ SEU CORAÇÃO
TTITLE6=MARCELO DANTAS - DEIXA EU TE AMAR
TTITLE7=MARCELO DANTAS - AZUL
TTITLE8=MARCELO DANTAS - DESENHO DE DEUS
TTITLE9=MARCELO DANTAS - AMO VOCÊ
TTITLE10=MARCELO DANTAS - 11
TTITLE11=MARCELO DANTAS - 12
TTITLE12=MARCELO DANTAS - 13
TTITLE13=MARCELO DANTAS - 14
EXTD=geovane.barras@hotmail.com o mundo da musica mp3
EXTT0=
EXTT1=
EXTT2=
EXTT3=
EXTT4=
EXTT5=
EXTT6=
EXTT7=
EXTT8=
EXTT9=
EXTT10=
EXTT11=
EXTT12=
EXTT13=
PLAYORDER=
